HIERARCHY
ROOT Hips
{
	OFFSET 0.000000 1.471914 24.280096
	CHANNELS 6 Xposition Yposition Zposition Xrotation Yrotation Zrotation
	JOINT Spine
	{
		OFFSET 0.000000 0.900110 1.860670
		CHANNELS 6 Xposition Yposition Zposition Xrotation Yrotation Zrotation
		JOINT Spine1
		{
			OFFSET 0.000000 0.400320 2.270309
			CHANNELS 6 Xposition Yposition Zposition Xrotation Yrotation Zrotation
			JOINT Spine2
			{
				OFFSET 0.000000 0.200920 2.296560
				CHANNELS 6 Xposition Yposition Zposition Xrotation Yrotation Zrotation
				JOINT Spine3
				{
					OFFSET 0.000000 0.000000 2.305330
					CHANNELS 6 Xposition Yposition Zposition Xrotation Yrotation Zrotation
					JOINT Neck
					{
						OFFSET 0.000000 -0.864490 6.051487
						CHANNELS 6 Xposition Yposition Zposition Xrotation Yrotation Zrotation
						JOINT Head
						{
							OFFSET 0.000000 -0.550429 3.121674
							CHANNELS 6 Xposition Yposition Zposition Xrotation Yrotation Zrotation
							End Site
							{
								OFFSET 0.000000 0.000000 3.731750
							}
						}
					}
					JOINT RightShoulder
					{
						OFFSET -0.788280 -1.313800 4.256718
						CHANNELS 6 Xposition Yposition Zposition Xrotation Yrotation Zrotation
						JOINT RightArm
						{
							OFFSET -3.915130 0.000000 0.000000
							CHANNELS 6 Xposition Yposition Zposition Xrotation Yrotation Zrotation
							JOINT RightForeArm
							{
								OFFSET -6.914910 0.000000 0.000000
								CHANNELS 6 Xposition Yposition Zposition Xrotation Yrotation Zrotation
								JOINT RightHand
								{
									OFFSET -6.096219 0.000000 0.000000
									CHANNELS 6 Xposition Yposition Zposition Xrotation Yrotation Zrotation
									JOINT RightHandEnd
									{
										OFFSET -1.749950 0.000000 0.000000
										CHANNELS 6 Xposition Yposition Zposition Xrotation Yrotation Zrotation
										End Site
										{
											OFFSET -1.749950 0.000000 0.000000
										}
									}
									JOINT RightHandThumb1
									{
										OFFSET -0.699980 -1.166630 -0.466648
										CHANNELS 6 Xposition Yposition Zposition Xrotation Yrotation Zrotation
										End Site
										{
											OFFSET -1.690319 -0.452920 0.000000
										}
									}
								}
							}
						}
					}
					JOINT LeftShoulder
					{
						OFFSET 0.788280 -1.313800 4.256718
						CHANNELS 6 Xposition Yposition Zposition Xrotation Yrotation Zrotation
						JOINT LeftArm
						{
							OFFSET 3.915130 0.000000 0.000000
							CHANNELS 6 Xposition Yposition Zposition Xrotation Yrotation Zrotation
							JOINT LeftForeArm
							{
								OFFSET 6.914910 0.000000 0.000000
								CHANNELS 6 Xposition Yposition Zposition Xrotation Yrotation Zrotation
								JOINT LeftHand
								{
									OFFSET 6.096219 0.000000 0.000000
									CHANNELS 6 Xposition Yposition Zposition Xrotation Yrotation Zrotation
									JOINT LeftHandEnd
									{
										OFFSET 1.749950 0.000000 0.000000
										CHANNELS 6 Xposition Yposition Zposition Xrotation Yrotation Zrotation
										End Site
										{
											OFFSET 1.749950 0.000000 0.000000
										}
									}
									JOINT LeftHandThumb1
									{
										OFFSET 0.699980 -1.166630 -0.466648
										CHANNELS 6 Xposition Yposition Zposition Xrotation Yrotation Zrotation
										End Site
										{
											OFFSET 1.690319 -0.452920 0.000000
										}
									}
								}
							}
						}
					}
				}
			}
		}
	}
	JOINT RightUpLeg
	{
		OFFSET -2.338570 -0.252550 -0.551512
		CHANNELS 6 Xposition Yposition Zposition Xrotation Yrotation Zrotation
		JOINT RightLeg
		{
			OFFSET 0.000000 0.000000 -10.744959
			CHANNELS 6 Xposition Yposition Zposition Xrotation Yrotation Zrotation
			JOINT RightFoot
			{
				OFFSET 0.000000 -0.000001 -10.930849
				CHANNELS 6 Xposition Yposition Zposition Xrotation Yrotation Zrotation
				JOINT RightToeBase
				{
					OFFSET 0.000000 -4.087269 -1.487650
					CHANNELS 6 Xposition Yposition Zposition Xrotation Yrotation Zrotation
					End Site
					{
						OFFSET 0.000000 -1.891870 0.000000
					}
				}
			}
		}
	}
	JOINT LeftUpLeg
	{
		OFFSET 2.338570 -0.252550 -0.551512
		CHANNELS 6 Xposition Yposition Zposition Xrotation Yrotation Zrotation
		JOINT LeftLeg
		{
			OFFSET 0.000000 0.000000 -10.744959
			CHANNELS 6 Xposition Yposition Zposition Xrotation Yrotation Zrotation
			JOINT LeftFoot
			{
				OFFSET 0.000000 -0.000001 -10.930849
				CHANNELS 6 Xposition Yposition Zposition Xrotation Yrotation Zrotation
				JOINT LeftToeBase
				{
					OFFSET 0.000000 -4.087269 -1.487650
					CHANNELS 6 Xposition Yposition Zposition Xrotation Yrotation Zrotation
					End Site
					{
						OFFSET 0.000000 -1.891870 0.000000
					}
				}
			}
		}
	}
}
MOTION
Frames: 4
Frame Time: 0.041667
0.000010 26.534410 40.221638 -15.133269 6.861890 -16.315949 -0.000013 0.900098 1.860678 33.162781 -3.000435 -1.922061 0.000011 0.400269 2.270325 0.000001 -0.000002 0.000007 0.000023 0.200891 2.296551 -0.000001 -0.000001 0.000003 0.000021 0.000024 2.305335 -0.000020 0.000000 -0.105914 -0.000018 -0.864470 6.051436 1.186817 -1.639736 -170.172141 0.000010 -0.550423 3.121704 -0.000009 -0.000001 -0.000003 -0.788277 -1.313725 4.256822 -142.062716 52.295432 -47.040811 -3.915134 -0.000036 -0.000023 -0.000001 -0.000002 0.000002 -6.914919 -0.000023 -0.000000 0.000004 -0.000003 -36.592288 -6.096176 -0.000004 0.000039 -0.000038 0.000032 -0.000119 -1.749893 -0.000038 0.000038 -0.000004 0.000001 -0.000002 -0.699982 -1.166622 -0.466658 -0.000014 -0.000004 -0.000003 0.788257 -1.313765 4.256772 -120.685317 -52.243253 58.724040 3.915170 0.000017 -0.000042 0.000006 -0.000001 0.000009 6.914935 -0.000057 0.000009 0.000011 -0.000002 27.736905 6.096235 0.000094 -0.000030 0.000048 -0.000038 0.000044 1.749987 0.000003 0.000022 0.000002 -0.000006 0.000000 0.699952 -1.166627 -0.466630 0.000008 -0.000002 -0.000021 -2.338572 -0.252536 -0.551491 22.429286 -4.166905 -1.342402 0.000010 -0.000030 -10.744959 8.395294 5.886251 -1.075610 -0.000016 0.000097 -10.930824 -0.000014 -0.000004 0.000006 0.000011 -4.087252 -1.487650 0.000001 0.000003 -0.000002 2.338570 -0.252533 -0.551474 23.687040 -3.264479 -1.415334 0.000002 -0.000025 -10.744911 6.430439 1.653644 -0.726448 -0.000007 0.000001 -10.930871 0.000007 -0.000000 0.000001 -0.000014 -4.087214 -1.487650 -0.000003 0.000002 0.000002 
0.000001 26.534409 40.221642 -14.811921 7.110568 -17.057597 -0.000013 0.900096 1.860675 32.159768 -2.392707 -1.869672 0.000011 0.400262 2.270323 0.000000 -0.000002 0.000004 0.000023 0.200895 2.296558 -0.000001 -0.000001 0.000003 0.000022 0.000020 2.305331 -0.000016 0.000002 -0.193176 -0.000018 -0.864472 6.051439 2.814502 -3.540256 -171.444906 0.000010 -0.550419 3.121704 -0.000007 -0.000002 -0.000003 -0.788273 -1.313720 4.256825 -148.914475 53.344908 -41.786817 -3.915139 -0.000038 -0.000027 -0.000001 -0.000002 -0.000000 -6.914912 -0.000023 0.000002 -0.000002 -0.000016 -42.532510 -6.096171 0.000003 0.000040 -0.000035 0.000032 -0.000120 -1.749887 -0.000035 0.000042 -0.000003 -0.000003 -0.000007 -0.699972 -1.166619 -0.466652 -0.000014 -0.000005 -0.000010 0.788256 -1.313760 4.256773 -119.391652 -52.244496 59.211067 3.915167 0.000015 -0.000038 0.000009 0.000000 0.000008 6.914948 -0.000054 0.000001 0.000013 0.000002 28.232087 6.096232 0.000096 -0.000038 0.000045 -0.000039 0.000043 1.749974 0.000004 0.000028 0.000004 -0.000007 -0.000002 0.699944 -1.166626 -0.466624 0.000009 0.000001 -0.000023 -2.338571 -0.252539 -0.551492 21.956531 -4.098861 -1.316198 0.000011 -0.000029 -10.744959 8.440881 5.920672 -1.073384 -0.000016 0.000100 -10.930824 -0.000015 -0.000005 0.000007 0.000011 -4.087248 -1.487648 -0.000000 0.000002 -0.000005 2.338570 -0.252534 -0.551475 23.390309 -2.956764 -1.398782 0.000001 -0.000023 -10.744910 6.290680 1.060699 -0.678445 -0.000005 0.000006 -10.930870 0.000009 -0.000001 -0.000000 -0.000014 -4.087223 -1.487652 0.000001 0.000000 -0.000003 
0.000013 26.534414 40.221634 -14.739473 7.202715 -17.627426 -0.000014 0.900095 1.860673 31.611058 -1.897850 -1.959605 0.000010 0.400267 2.270315 -0.000001 -0.000001 0.000010 0.000023 0.200890 2.296562 0.000001 -0.000002 0.000000 0.000022 0.000021 2.305327 -0.000014 0.000002 -0.057108 -0.000018 -0.864476 6.051441 3.664191 -4.427794 -171.708155 0.000011 -0.550425 3.121711 -0.000010 -0.000001 -0.000003 -0.788272 -1.313733 4.256832 -155.988120 54.835006 -37.245445 -3.915132 -0.000033 -0.000023 -0.000001 -0.000004 -0.000001 -6.914920 -0.000017 -0.000001 -0.000007 -0.000027 -48.189922 -6.096177 -0.000001 0.000041 -0.000039 0.000032 -0.000121 -1.749890 -0.000039 0.000042 -0.000006 0.000002 -0.000007 -0.699978 -1.166619 -0.466655 -0.000016 -0.000003 -0.000005 0.788258 -1.313771 4.256783 -119.041987 -52.547094 59.156951 3.915171 0.000019 -0.000042 0.000006 -0.000002 0.000009 6.914946 -0.000051 0.000004 0.000010 0.000003 28.664839 6.096232 0.000094 -0.000033 0.000050 -0.000034 0.000044 1.749976 0.000007 0.000025 -0.000003 -0.000005 0.000002 0.699951 -1.166625 -0.466627 0.000008 0.000000 -0.000021 -2.338573 -0.252542 -0.551491 21.842105 -3.674086 -1.394112 0.000011 -0.000029 -10.744957 8.320648 5.465924 -1.027967 -0.000018 0.000102 -10.930823 -0.000014 -0.000004 0.000005 0.000012 -4.087256 -1.487649 0.000004 0.000003 0.000001 2.338570 -0.252538 -0.551476 23.287834 -2.454698 -1.482321 0.000002 -0.000022 -10.744914 6.368893 0.343109 -0.655055 -0.000006 0.000003 -10.930868 0.000014 0.000000 0.000001 -0.000012 -4.087214 -1.487649 -0.000003 0.000001 -0.000001 
0.000008 26.534422 40.221642 -14.635473 7.229263 -18.316042 -0.000013 0.900092 1.860676 30.608472 -1.140290 -2.026234 0.000012 0.400264 2.270321 0.000000 -0.000001 0.000010 0.000023 0.200896 2.296549 0.000002 -0.000000 0.000000 0.000020 0.000025 2.305323 -0.000017 0.000001 0.086843 -0.000019 -0.864473 6.051444 4.394510 -6.205769 -172.027508 0.000011 -0.550419 3.121692 -0.000010 -0.000001 -0.000004 -0.788276 -1.313725 4.256830 -163.842318 55.713771 -32.147477 -3.915138 -0.000035 -0.000016 -0.000001 0.000002 0.000000 -6.914920 -0.000015 0.000007 -0.000022 -0.000045 -59.590382 -6.096178 -0.000002 0.000046 -0.000032 0.000034 -0.000118 -1.749892 -0.000041 0.000034 -0.000005 0.000002 -0.000003 -0.699980 -1.166625 -0.466663 -0.000011 -0.000006 -0.000005 0.788256 -1.313767 4.256779 -118.885972 -51.855985 58.471310 3.915164 0.000015 -0.000045 0.000008 -0.000000 0.000004 6.914946 -0.000058 -0.000004 0.000009 0.000007 30.186363 6.096229 0.000095 -0.000034 0.000047 -0.000036 0.000043 1.749985 0.000008 0.000022 -0.000002 -0.000005 -0.000002 0.699957 -1.166623 -0.466627 -0.000001 0.000002 -0.000023 -2.338574 -0.252541 -0.551493 21.824186 -3.201501 -1.483144 0.000011 -0.000030 -10.744957 8.430660 5.108059 -1.005652 -0.000016 0.000101 -10.930822 -0.000010 -0.000003 0.000006 0.000012 -4.087250 -1.487650 0.000000 0.000004 -0.000003 2.338570 -0.252537 -0.551479 23.340959 -2.372280 -1.582785 0.000002 -0.000026 -10.744915 6.459171 0.903086 -0.679518 -0.000006 0.000002 -10.930866 0.000009 -0.000002 0.000000 -0.000013 -4.087220 -1.487650 -0.000001 0.000001 -0.000003 
